<svg width="250" height="50" viewBox="0 0 465.92 53.69" xmlns="http://www.w3.org/2000/svg"><g id="svgGroup" stroke-linecap="round" fill-rule="evenodd" font-size="9pt" stroke="#000" stroke-width="0.015mm" fill="#d13440ff" style="stroke:#000;stroke-width:0.015mm;fill:#d13440ff"><path d="M 0 48.51 L 0.7 47.46 A 6.405 6.405 0 0 0 1.812 48.621 A 8.467 8.467 0 0 0 2.8 49.315 A 7.208 7.208 0 0 0 3.643 49.757 Q 4.475 50.12 5.18 50.12 Q 7.77 50.12 9.17 45.71 Q 14.98 28.35 18.41 10.08 L 11.34 5.67 L 11.48 4.62 Q 18.97 4.9 32.13 4.9 Q 36.1 4.9 41.053 4.823 A 828.453 828.453 0 0 0 42.7 4.795 Q 47.791 4.705 49.346 4.692 A 53.097 53.097 0 0 1 49.77 4.69 A 6.036 6.036 0 0 1 50.885 4.784 Q 52.738 5.134 52.844 6.795 A 3.239 3.239 0 0 1 52.85 7 A 4.716 4.716 0 0 1 52.527 8.473 Q 51.258 12.076 45.01 21.28 Q 44.404 22.156 44.121 22.578 A 27.94 27.94 0 0 0 44.1 22.61 L 42.63 22.61 A 81.363 81.363 0 0 0 42.907 19.753 Q 43.369 13.856 42.63 10.5 A 8.25 8.25 0 0 0 42.279 9.239 Q 41.843 8.067 41.09 7.385 Q 39.97 6.37 37.38 6.37 L 30.8 6.37 A 159.521 159.521 0 0 1 29.516 13.463 Q 28.774 17.132 27.782 21.344 A 386.753 386.753 0 0 1 25.55 30.31 L 28.56 30.31 Q 30.366 30.31 32.711 29.537 A 25.778 25.778 0 0 0 34.65 28.805 Q 38.22 27.3 41.23 24.85 L 41.86 25.13 A 55.729 55.729 0 0 1 39.256 34.184 A 64.212 64.212 0 0 1 38.22 36.75 L 37.59 36.89 A 9.886 9.886 0 0 0 35.572 34.648 Q 34.615 33.854 33.39 33.18 Q 31.017 31.875 28.895 31.676 A 8.084 8.084 0 0 0 28.14 31.64 L 25.2 31.64 A 194.613 194.613 0 0 1 22.171 41.917 A 172.61 172.61 0 0 1 21.42 44.17 A 16.622 16.622 0 0 1 19.184 48.738 Q 16.065 53.086 10.336 53.562 A 17.485 17.485 0 0 1 8.89 53.62 A 10.193 10.193 0 0 1 4.256 52.589 Q 2.208 51.562 0.678 49.511 A 13.683 13.683 0 0 1 0 48.51 Z" id="0" vector-effect="non-scaling-stroke"/><path d="M 50.61 35.21 L 56.07 18.13 A 114.995 114.995 0 0 0 57.417 13.598 Q 58.695 8.921 59.08 5.6 L 56.56 1.89 L 56.7 1.05 Q 63.28 0.14 70.49 0 L 71.33 0.56 Q 71.33 7.14 66.01 24.29 Q 65.66 25.34 63.385 32.235 A 352.306 352.306 0 0 0 62.324 35.501 Q 61.194 39.043 60.467 41.628 A 92.65 92.65 0 0 0 60.06 43.12 Q 59.187 46.438 59.04 48.449 A 10.473 10.473 0 0 0 59.01 49.21 A 8.079 8.079 0 0 0 59.031 49.814 Q 59.087 50.553 59.29 50.96 Q 61.2 50.421 63.59 49.077 A 38.807 38.807 0 0 0 65.73 47.775 A 43.524 43.524 0 0 0 68.735 45.642 Q 70.512 44.258 71.89 42.84 L 72.1 43.05 L 72.1 44.73 A 31.6 31.6 0 0 1 65.076 50.28 A 36.338 36.338 0 0 1 63.735 51.03 Q 58.87 53.62 55.51 53.62 A 10.281 10.281 0 0 1 53.225 53.381 Q 51.35 52.954 50.05 51.765 A 6.137 6.137 0 0 1 48.07 47.763 A 8.542 8.542 0 0 1 48.02 46.83 Q 48.02 43.78 50.246 36.398 A 145.144 145.144 0 0 1 50.61 35.21 Z" id="1" vector-effect="non-scaling-stroke"/><path d="M 116.55 42.63 L 116.55 44.45 A 30.444 30.444 0 0 1 113.412 47.221 Q 111.715 48.534 109.663 49.804 A 55.103 55.103 0 0 1 108.255 50.645 A 30.124 30.124 0 0 1 105.173 52.214 Q 101.929 53.62 99.33 53.62 A 9.701 9.701 0 0 1 97.372 53.435 Q 95.592 53.068 94.43 51.975 Q 92.719 50.367 92.681 47.455 A 10.198 10.198 0 0 1 92.68 47.32 A 10.276 10.276 0 0 1 92.903 45.251 Q 93.1 44.291 93.473 43.253 A 18.536 18.536 0 0 1 93.695 42.665 A 38.071 38.071 0 0 1 94.297 41.246 Q 95.014 39.635 96.131 37.419 A 175.608 175.608 0 0 1 97.23 35.28 L 95.06 35.49 A 110.103 110.103 0 0 1 93.801 38.379 Q 93.008 40.123 92.26 41.58 A 57.142 57.142 0 0 1 90.785 44.262 Q 89.984 45.636 89.032 47.119 A 91.869 91.869 0 0 1 88.97 47.215 A 21.377 21.377 0 0 1 87.188 49.618 Q 86.148 50.823 85.023 51.697 A 12.704 12.704 0 0 1 84.7 51.94 A 9.419 9.419 0 0 1 82.652 53.089 A 7.268 7.268 0 0 1 79.94 53.62 A 7.033 7.033 0 0 1 74.436 51.124 A 10.014 10.014 0 0 1 73.57 49.98 A 13.675 13.675 0 0 1 71.79 45.816 Q 71.19 43.447 71.19 40.53 A 33.982 33.982 0 0 1 72.062 32.645 A 25.415 25.415 0 0 1 76.09 23.66 A 18.168 18.168 0 0 1 79.964 19.616 A 14.075 14.075 0 0 1 88.62 16.8 A 10.562 10.562 0 0 1 92.589 17.516 Q 95.097 18.523 96.801 20.949 A 12.403 12.403 0 0 1 97.16 21.49 L 96.46 23.31 A 18.776 18.776 0 0 0 94.947 21.463 Q 93.176 19.584 91.474 19.121 A 4.196 4.196 0 0 0 90.37 18.97 A 3.01 3.01 0 0 0 88.393 19.779 Q 86.725 21.207 85.323 25.155 A 32.295 32.295 0 0 0 85.295 25.235 A 37.4 37.4 0 0 0 83.591 32.34 Q 83.09 35.824 83.09 39.76 Q 83.09 47.32 85.68 47.32 A 1.552 1.552 0 0 0 86.422 47.112 Q 86.959 46.82 87.543 46.12 A 9.109 9.109 0 0 0 87.99 45.535 A 16.315 16.315 0 0 0 88.668 44.479 Q 89.4 43.248 90.327 41.352 A 95.548 95.548 0 0 0 91.28 39.34 Q 94.71 32.34 99.96 17.64 A 20.043 20.043 0 0 1 104.462 18.965 A 23.555 23.555 0 0 1 105.84 19.6 Q 108.78 21.07 110.25 22.68 Q 110.25 24.853 106.969 34.95 A 362.039 362.039 0 0 1 106.54 36.26 A 325.243 325.243 0 0 0 105.279 40.167 Q 102.83 47.937 102.83 49.7 Q 102.83 50.414 103.002 50.783 A 0.872 0.872 0 0 0 103.11 50.96 A 28.249 28.249 0 0 0 111.148 46.905 A 38.736 38.736 0 0 0 116.34 42.42 L 116.55 42.63 Z" id="2" vector-effect="non-scaling-stroke"/><path d="M 116.34 20.79 L 116.2 20.65 L 116.48 19.18 A 16.251 16.251 0 0 1 121.646 17.108 A 14.921 14.921 0 0 1 124.67 16.8 A 10.027 10.027 0 0 1 127.261 17.105 Q 130.592 17.998 131.189 21.509 A 9.91 9.91 0 0 1 131.32 23.17 A 12.923 12.923 0 0 1 131.196 24.797 Q 130.828 27.629 129.367 32.927 A 175.255 175.255 0 0 1 128.73 35.175 Q 126.14 44.1 126.14 47.74 A 4.123 4.123 0 0 0 126.221 48.598 Q 126.531 50.05 128.03 50.05 A 3.355 3.355 0 0 0 129.512 49.664 Q 130.681 49.086 132.034 47.645 A 22.183 22.183 0 0 0 133.35 46.095 A 38.093 38.093 0 0 0 136.13 41.964 Q 137.644 39.384 139.02 36.26 Q 141.54 37.45 144.27 37.45 A 56.63 56.63 0 0 1 135.314 47.316 A 51.907 51.907 0 0 1 133.35 48.93 Q 127.26 53.69 122.57 53.69 A 10.299 10.299 0 0 1 120.235 53.44 A 7.014 7.014 0 0 1 117.075 51.835 A 6.125 6.125 0 0 1 115.046 47.697 A 8.509 8.509 0 0 1 115.01 46.9 A 12.627 12.627 0 0 1 115.137 45.271 Q 115.592 41.86 117.67 34.86 Q 119.716 27.967 120.188 23.85 A 19.677 19.677 0 0 0 120.33 21.63 A 3.018 3.018 0 0 0 120.278 21.043 Q 120.074 20.02 119.07 20.02 Q 117.6 20.02 116.34 20.79 Z M 159.32 29.89 L 158.9 31.92 A 19.937 19.937 0 0 1 154.796 34.314 A 24.429 24.429 0 0 1 152.635 35.14 A 23.964 23.964 0 0 1 148.44 36.134 A 20.002 20.002 0 0 1 145.67 36.33 A 14.659 14.659 0 0 1 141.881 35.863 A 11.247 11.247 0 0 1 137.62 33.705 Q 134.961 31.537 134.498 27.101 A 19.005 19.005 0 0 1 134.4 25.13 A 19.286 19.286 0 0 1 134.819 20.999 Q 135.462 18.064 137.093 15.857 A 12.269 12.269 0 0 1 137.2 15.715 Q 139.93 12.132 144.391 12.042 A 11.449 11.449 0 0 1 144.62 12.04 Q 147.56 12.04 149.625 13.965 A 6.278 6.278 0 0 1 151.457 17.216 A 9.554 9.554 0 0 1 151.69 19.39 Q 151.69 26.04 146.16 34.65 Q 146.363 34.718 146.892 34.72 A 8.682 8.682 0 0 0 146.93 34.72 A 13.63 13.63 0 0 0 150.059 34.337 Q 151.436 34.012 152.903 33.412 A 23.06 23.06 0 0 0 153.125 33.32 Q 156.45 31.92 159.11 29.75 L 159.32 29.89 Z M 137.892 30.782 A 6.688 6.688 0 0 0 140.28 33.39 A 60.664 60.664 0 0 0 141.874 28.265 Q 143.08 23.625 143.08 19.95 Q 143.08 17.184 142.276 16.049 A 1.754 1.754 0 0 0 140.77 15.26 A 2.21 2.21 0 0 0 139.218 15.922 Q 138.517 16.584 137.971 17.909 A 11.22 11.22 0 0 0 137.83 18.27 A 17.754 17.754 0 0 0 136.845 22.495 A 22.349 22.349 0 0 0 136.71 24.99 Q 136.71 28.535 137.892 30.782 Z" id="3" vector-effect="non-scaling-stroke"/><path d="M 176.12 37.45 Q 182.84 36.82 186.83 35.07 A 27.266 27.266 0 0 1 178.555 47.334 A 33.156 33.156 0 0 1 177.52 48.195 A 25.31 25.31 0 0 1 170.317 52.306 A 22.11 22.11 0 0 1 162.75 53.62 A 14.804 14.804 0 0 1 159.255 53.231 A 10.01 10.01 0 0 1 154.385 50.54 A 10.417 10.417 0 0 1 151.414 44.097 A 14.119 14.119 0 0 1 151.34 42.63 Q 151.34 37.94 153.79 33.915 A 19.712 19.712 0 0 1 157.119 29.765 A 17.162 17.162 0 0 1 159.88 27.65 A 158.325 158.325 0 0 1 161.957 30.019 Q 162.972 31.202 163.848 32.278 A 85.549 85.549 0 0 1 164.85 33.53 Q 163.1 37.17 163.1 41.16 A 28.608 28.608 0 0 0 163.268 44.405 Q 163.643 47.671 164.858 49.292 A 3.811 3.811 0 0 0 168.07 50.89 Q 174.002 50.89 176.107 37.531 A 62.383 62.383 0 0 0 176.12 37.45 Z M 199.71 25.9 L 199.71 27.44 Q 194.11 31.29 187.285 33.74 A 44.719 44.719 0 0 1 181.079 35.499 A 33.025 33.025 0 0 1 174.51 36.19 A 16.035 16.035 0 0 1 171.374 35.901 Q 168.789 35.385 166.95 33.95 A 7.226 7.226 0 0 1 164.295 29.55 A 11.166 11.166 0 0 1 164.08 27.3 A 17.063 17.063 0 0 1 164.617 22.915 A 12.95 12.95 0 0 1 167.335 17.71 A 10.556 10.556 0 0 1 175.032 13.953 A 13.963 13.963 0 0 1 175.84 13.93 A 10.479 10.479 0 0 1 180.516 14.956 Q 182.54 15.948 184.104 17.901 A 13.29 13.29 0 0 1 184.31 18.165 Q 187.306 22.106 187.514 28.318 A 28.09 28.09 0 0 1 187.53 29.26 Q 187.53 30.45 187.39 32.27 Q 193.9 29.96 199.36 25.69 L 199.71 25.9 Z M 166.32 26.39 Q 166.32 34.65 175.21 34.65 Q 175.845 34.65 176.242 34.603 A 3.498 3.498 0 0 0 176.4 34.58 Q 176.454 33.83 176.466 32.505 A 91.489 91.489 0 0 0 176.47 31.64 A 58.156 58.156 0 0 0 176.334 27.53 Q 176.189 25.496 175.891 23.763 A 25.361 25.361 0 0 0 175.315 21.175 A 12.825 12.825 0 0 0 174.801 19.681 Q 173.705 17.08 171.92 17.08 A 3.417 3.417 0 0 0 169.938 17.742 Q 168.959 18.424 168.07 19.81 A 10.901 10.901 0 0 0 166.527 23.876 A 14.691 14.691 0 0 0 166.32 26.39 Z" id="4" vector-effect="non-scaling-stroke"/><path d="M 197.61 21.98 L 195.02 18.69 L 195.16 17.85 A 85.517 85.517 0 0 1 206.268 16.837 A 96.635 96.635 0 0 1 208.95 16.8 L 209.79 17.43 A 38.415 38.415 0 0 1 208.763 24.155 Q 207.223 30.666 203.459 38.898 A 129.007 129.007 0 0 1 202.93 40.04 L 203.98 40.67 A 835.825 835.825 0 0 1 206.416 36.086 Q 209.504 30.322 211.224 27.392 A 77.084 77.084 0 0 1 211.61 26.74 L 212.73 25.06 Q 213.78 23.38 214.06 23.03 Q 214.322 22.703 215.258 21.456 A 407.847 407.847 0 0 0 215.39 21.28 A 18.978 18.978 0 0 1 215.891 20.639 Q 216.606 19.766 217.105 19.425 A 52.434 52.434 0 0 0 217.466 19.176 Q 218.05 18.769 218.89 18.165 A 7.323 7.323 0 0 1 220.09 17.458 A 5.843 5.843 0 0 1 221.165 17.08 Q 222.32 16.8 223.65 16.8 A 7.174 7.174 0 0 1 225.355 16.992 A 5.084 5.084 0 0 1 227.605 18.165 A 4.951 4.951 0 0 1 229.189 21.191 A 6.645 6.645 0 0 1 229.25 21.77 A 49.482 49.482 0 0 1 227.311 27.558 Q 225.763 31.417 223.44 35.63 L 222.32 35.63 A 54.189 54.189 0 0 0 221.324 32.245 Q 219.727 27.454 217.943 26.056 A 2.419 2.419 0 0 0 216.44 25.48 A 2.093 2.093 0 0 0 215.386 25.82 Q 213.803 26.761 211.54 30.31 Q 206.08 39.13 199.64 53.62 A 22.226 22.226 0 0 1 197.722 53.474 Q 196.013 53.275 193.935 52.815 A 33.486 33.486 0 0 1 192.206 52.388 Q 190.177 51.824 189.07 51.17 A 85.124 85.124 0 0 0 190.568 47.459 Q 192.163 43.251 193.989 37.414 A 289.079 289.079 0 0 0 194.25 36.575 A 137.844 137.844 0 0 0 195.744 31.417 Q 197.265 25.721 197.61 21.98 Z" id="5" vector-effect="non-scaling-stroke"/><path d="M 234.29 48.51 L 234.99 47.46 A 6.405 6.405 0 0 0 236.102 48.621 A 8.467 8.467 0 0 0 237.09 49.315 A 7.208 7.208 0 0 0 237.933 49.757 Q 238.765 50.12 239.47 50.12 Q 242.06 50.12 243.46 45.71 Q 249.27 28.35 252.7 10.08 L 245.63 5.67 L 245.77 4.62 Q 253.26 4.9 266.42 4.9 Q 270.39 4.9 275.343 4.823 A 828.453 828.453 0 0 0 276.99 4.795 Q 282.081 4.705 283.636 4.692 A 53.097 53.097 0 0 1 284.06 4.69 A 6.036 6.036 0 0 1 285.175 4.784 Q 287.028 5.134 287.134 6.795 A 3.239 3.239 0 0 1 287.14 7 A 4.716 4.716 0 0 1 286.817 8.473 Q 285.548 12.076 279.3 21.28 Q 278.694 22.156 278.411 22.578 A 27.94 27.94 0 0 0 278.39 22.61 L 276.92 22.61 A 81.363 81.363 0 0 0 277.197 19.753 Q 277.659 13.856 276.92 10.5 A 8.25 8.25 0 0 0 276.569 9.239 Q 276.133 8.067 275.38 7.385 Q 274.26 6.37 271.67 6.37 L 265.09 6.37 A 159.521 159.521 0 0 1 263.806 13.463 Q 263.064 17.132 262.072 21.344 A 386.753 386.753 0 0 1 259.84 30.31 L 262.85 30.31 Q 264.656 30.31 267.001 29.537 A 25.778 25.778 0 0 0 268.94 28.805 Q 272.51 27.3 275.52 24.85 L 276.15 25.13 A 55.729 55.729 0 0 1 273.546 34.184 A 64.212 64.212 0 0 1 272.51 36.75 L 271.88 36.89 A 9.886 9.886 0 0 0 269.862 34.648 Q 268.905 33.854 267.68 33.18 Q 265.307 31.875 263.185 31.676 A 8.084 8.084 0 0 0 262.43 31.64 L 259.49 31.64 A 194.613 194.613 0 0 1 256.461 41.917 A 172.61 172.61 0 0 1 255.71 44.17 A 16.622 16.622 0 0 1 253.474 48.738 Q 250.355 53.086 244.626 53.562 A 17.485 17.485 0 0 1 243.18 53.62 A 10.193 10.193 0 0 1 238.546 52.589 Q 236.498 51.562 234.968 49.511 A 13.683 13.683 0 0 1 234.29 48.51 Z" id="7" vector-effect="non-scaling-stroke"/><path d="M 305.55 43.26 L 305.55 44.94 A 35.899 35.899 0 0 1 300.07 49.586 A 41.856 41.856 0 0 1 297.955 50.96 A 21.919 21.919 0 0 1 294.887 52.529 Q 293.138 53.245 291.494 53.491 A 11.424 11.424 0 0 1 289.8 53.62 A 10.298 10.298 0 0 1 287.462 53.369 A 7.097 7.097 0 0 1 284.375 51.835 A 5.82 5.82 0 0 1 282.439 48.351 A 8.559 8.559 0 0 1 282.31 46.83 A 11.517 11.517 0 0 1 282.452 45.193 Q 282.917 42.041 284.9 35.77 Q 287.497 27.849 288.348 22.819 A 39.026 39.026 0 0 0 288.47 22.05 L 285.88 18.69 L 286.02 17.85 A 148.434 148.434 0 0 1 294.64 17.027 A 120.311 120.311 0 0 1 299.81 16.8 L 300.65 17.43 A 27.384 27.384 0 0 1 300.423 20.749 Q 299.843 25.456 297.78 32.55 Q 297.22 34.44 295.89 38.5 A 205.786 205.786 0 0 0 295.267 40.434 Q 294.516 42.803 294.043 44.531 A 59.973 59.973 0 0 0 293.895 45.08 Q 293.23 47.6 293.23 49.21 Q 293.23 50.194 293.443 50.708 A 1.267 1.267 0 0 0 293.58 50.96 A 13.038 13.038 0 0 0 295.416 50.285 Q 296.341 49.869 297.361 49.277 A 32.461 32.461 0 0 0 299.495 47.915 A 40.987 40.987 0 0 0 302.816 45.374 A 31.523 31.523 0 0 0 305.27 43.05 L 305.55 43.26 Z M 293.652 9.064 A 5.06 5.06 0 0 0 295.26 9.31 Q 297.5 9.31 299.32 7.805 Q 301.14 6.3 301.14 3.85 A 4.61 4.61 0 0 0 301.136 3.668 A 3.548 3.548 0 0 0 299.95 1.085 A 4.002 4.002 0 0 0 298.363 0.193 A 5.02 5.02 0 0 0 296.94 0 A 6.244 6.244 0 0 0 294.901 0.336 A 6.996 6.996 0 0 0 292.81 1.505 A 6.063 6.063 0 0 0 292.794 1.518 Q 290.92 3.021 290.92 5.46 A 4.303 4.303 0 0 0 290.928 5.719 A 3.463 3.463 0 0 0 292.18 8.225 A 4.337 4.337 0 0 0 293.652 9.064 Z" id="8" vector-effect="non-scaling-stroke"/><path d="M 351.61 42.63 L 351.61 44.45 A 28.837 28.837 0 0 1 348.52 47.221 Q 346.848 48.527 344.813 49.79 A 53.387 53.387 0 0 1 343.385 50.645 A 29.735 29.735 0 0 1 340.296 52.214 Q 338.679 52.912 337.213 53.263 A 12.122 12.122 0 0 1 334.39 53.62 Q 329.14 53.62 328.035 49.607 A 9.15 9.15 0 0 1 327.74 47.18 A 10.323 10.323 0 0 1 327.897 45.548 Q 328.365 42.702 330.221 37.344 A 152.052 152.052 0 0 1 331.03 35.07 Q 334.39 25.69 334.39 23.8 Q 334.39 22.067 333.063 21.814 A 2.632 2.632 0 0 0 332.57 21.77 Q 330.329 21.77 326.62 26.959 A 53.426 53.426 0 0 0 325.43 28.7 A 122.569 122.569 0 0 0 321.826 34.863 Q 318.238 41.388 313.966 50.551 A 440.414 440.414 0 0 0 312.55 53.62 A 22.226 22.226 0 0 1 310.632 53.474 Q 308.923 53.275 306.845 52.815 A 33.486 33.486 0 0 1 305.116 52.388 Q 303.087 51.824 301.98 51.17 A 74.621 74.621 0 0 0 303.431 47.526 Q 304.852 43.697 306.455 38.413 A 263.114 263.114 0 0 0 306.985 36.645 Q 309.75 27.3 310.24 21.98 L 307.65 18.69 L 307.86 17.85 A 81.006 81.006 0 0 1 317.112 16.903 A 95.668 95.668 0 0 1 321.58 16.8 L 322.49 17.43 A 29.314 29.314 0 0 1 321.834 23.278 Q 320.625 29.174 317.188 36.95 A 123.609 123.609 0 0 1 315.77 40.04 L 316.75 40.53 Q 321.79 30.73 324.1 27.37 Q 331.24 16.8 338.59 16.8 Q 341.38 16.8 343.203 17.931 A 6.085 6.085 0 0 1 344.225 18.725 A 6.432 6.432 0 0 1 346.15 22.662 A 8.956 8.956 0 0 1 346.22 23.8 A 8.844 8.844 0 0 1 346.036 25.39 Q 345.53 28.046 343.636 33.305 A 186.658 186.658 0 0 1 342.3 36.89 A 190.097 190.097 0 0 0 340.992 40.336 Q 338.45 47.246 338.45 49.35 Q 338.45 50.089 338.609 50.469 A 0.876 0.876 0 0 0 338.73 50.68 A 26.343 26.343 0 0 0 345.35 47.489 Q 347.985 45.757 350.559 43.31 A 46.438 46.438 0 0 0 351.4 42.49 L 351.61 42.63 Z" id="9" vector-effect="non-scaling-stroke"/><path d="M 395.92 42.63 L 395.92 44.38 Q 392.77 47.74 387.87 50.68 Q 382.97 53.62 379.12 53.62 Q 375.97 53.62 374.255 51.975 A 5.35 5.35 0 0 1 372.781 49.386 Q 372.54 48.449 372.54 47.32 Q 372.54 43.737 375.935 35.911 A 105.474 105.474 0 0 1 376.18 35.35 L 374.92 35.49 A 39.196 39.196 0 0 1 373.773 38.091 A 30.996 30.996 0 0 1 372.82 39.9 Q 369.39 46.97 366.135 50.295 A 13.6 13.6 0 0 1 363.965 52.119 Q 362.467 53.116 360.906 53.451 A 7.587 7.587 0 0 1 359.31 53.62 Q 355.25 53.62 352.8 50.015 A 13.214 13.214 0 0 1 350.982 45.915 Q 350.35 43.516 350.35 40.53 A 34.358 34.358 0 0 1 351.174 32.807 A 24.63 24.63 0 0 1 355.355 23.555 A 18.359 18.359 0 0 1 359.384 19.505 A 14.411 14.411 0 0 1 367.99 16.8 A 11.453 11.453 0 0 1 372.283 17.574 Q 374.932 18.635 376.777 21.149 A 13.204 13.204 0 0 1 377.02 21.49 L 376.32 23.31 A 17.32 17.32 0 0 0 374.619 21.361 Q 372.269 19.073 369.884 18.975 A 5.201 5.201 0 0 0 369.67 18.97 A 3.132 3.132 0 0 0 367.616 19.806 Q 365.912 21.258 364.49 25.235 Q 362.283 31.408 362.25 39.517 A 60.58 60.58 0 0 0 362.25 39.76 A 30.422 30.422 0 0 0 362.335 42.136 Q 362.743 47.32 365.12 47.32 Q 366.211 47.32 367.444 45.765 A 11.371 11.371 0 0 0 367.99 45.01 Q 369.151 43.269 370.909 39.498 A 138.41 138.41 0 0 0 372.12 36.82 Q 373.939 33.45 376.371 27.015 A 226.63 226.63 0 0 0 377.93 22.75 A 150.091 150.091 0 0 0 379.976 16.894 Q 381.707 11.56 382.378 7.773 A 30.972 30.972 0 0 0 382.69 5.6 L 380.17 1.89 L 380.31 1.05 A 130.463 130.463 0 0 1 392.309 0.049 A 117.768 117.768 0 0 1 394.03 0 L 394.87 0.56 A 21.582 21.582 0 0 1 394.772 2.498 Q 394.476 5.74 393.295 10.99 Q 391.72 17.99 389.41 24.78 A 518.372 518.372 0 0 0 387.102 31.758 Q 382.62 45.671 382.62 49.14 A 7.965 7.965 0 0 0 382.641 49.735 Q 382.684 50.311 382.819 50.667 A 1.283 1.283 0 0 0 382.97 50.96 A 23.92 23.92 0 0 0 388.23 48.497 Q 390.509 47.095 392.834 45.099 A 50.473 50.473 0 0 0 395.64 42.49 L 395.92 42.63 Z" id="10" vector-effect="non-scaling-stroke"/><path d="M 431.06 40.32 L 431.34 40.46 L 431.34 42.21 Q 426.51 47.32 420.035 50.47 A 33.039 33.039 0 0 1 413.853 52.783 A 25.455 25.455 0 0 1 407.47 53.62 A 19.341 19.341 0 0 1 403.589 53.255 Q 401.29 52.784 399.526 51.705 A 10.35 10.35 0 0 1 397.6 50.19 A 11.198 11.198 0 0 1 394.715 45.05 Q 394.238 43.267 394.179 41.144 A 21.886 21.886 0 0 1 394.17 40.53 Q 394.17 31.22 400.61 24.01 A 22.392 22.392 0 0 1 406.754 19.081 A 19.65 19.65 0 0 1 416.15 16.8 Q 421.12 16.8 423.885 18.69 A 6.01 6.01 0 0 1 426.582 23.026 A 7.995 7.995 0 0 1 426.65 24.08 Q 426.65 28.63 421.19 32.305 Q 415.73 35.98 407.54 37.38 L 407.12 36.47 Q 411.46 34.23 414.505 30.135 A 17.868 17.868 0 0 0 416.359 27.083 Q 417.308 25.061 417.501 23.066 A 10.552 10.552 0 0 0 417.55 22.05 A 6.562 6.562 0 0 0 417.465 20.94 Q 417.122 18.958 415.411 18.902 A 3.08 3.08 0 0 0 415.31 18.9 Q 412.094 18.9 409.533 23.818 A 24.858 24.858 0 0 0 408.87 25.2 A 32.537 32.537 0 0 0 406.291 35.016 A 39.957 39.957 0 0 0 406.07 39.27 A 16.512 16.512 0 0 0 406.31 42.175 Q 406.596 43.775 407.224 45.057 A 8.504 8.504 0 0 0 408.1 46.48 A 6.578 6.578 0 0 0 412.425 49.013 A 9.922 9.922 0 0 0 414.05 49.14 A 17.883 17.883 0 0 0 420.286 47.981 A 22.707 22.707 0 0 0 422.94 46.795 Q 427.42 44.45 431.06 40.32 Z" id="11" vector-effect="non-scaling-stroke"/><path d="M 434.28 21.98 L 431.69 18.69 L 431.83 17.85 A 85.517 85.517 0 0 1 442.938 16.837 A 96.635 96.635 0 0 1 445.62 16.8 L 446.46 17.43 A 38.415 38.415 0 0 1 445.433 24.155 Q 443.893 30.666 440.129 38.898 A 129.007 129.007 0 0 1 439.6 40.04 L 440.65 40.67 A 835.825 835.825 0 0 1 443.086 36.086 Q 446.174 30.322 447.894 27.392 A 77.084 77.084 0 0 1 448.28 26.74 L 449.4 25.06 Q 450.45 23.38 450.73 23.03 Q 450.992 22.703 451.928 21.456 A 407.847 407.847 0 0 0 452.06 21.28 A 18.978 18.978 0 0 1 452.561 20.639 Q 453.276 19.766 453.775 19.425 A 52.434 52.434 0 0 0 454.136 19.176 Q 454.72 18.769 455.56 18.165 A 7.323 7.323 0 0 1 456.76 17.458 A 5.843 5.843 0 0 1 457.835 17.08 Q 458.99 16.8 460.32 16.8 A 7.174 7.174 0 0 1 462.025 16.992 A 5.084 5.084 0 0 1 464.275 18.165 A 4.951 4.951 0 0 1 465.859 21.191 A 6.645 6.645 0 0 1 465.92 21.77 A 49.482 49.482 0 0 1 463.981 27.558 Q 462.433 31.417 460.11 35.63 L 458.99 35.63 A 54.189 54.189 0 0 0 457.994 32.245 Q 456.397 27.454 454.613 26.056 A 2.419 2.419 0 0 0 453.11 25.48 A 2.093 2.093 0 0 0 452.056 25.82 Q 450.473 26.761 448.21 30.31 Q 442.75 39.13 436.31 53.62 A 22.226 22.226 0 0 1 434.392 53.474 Q 432.683 53.275 430.605 52.815 A 33.486 33.486 0 0 1 428.876 52.388 Q 426.847 51.824 425.74 51.17 A 85.124 85.124 0 0 0 427.238 47.459 Q 428.833 43.251 430.659 37.414 A 289.079 289.079 0 0 0 430.92 36.575 A 137.844 137.844 0 0 0 432.414 31.417 Q 433.935 25.721 434.28 21.98 Z" id="12" vector-effect="non-scaling-stroke"/></g></svg>